# xmcd
#
# Track frame offsets: 
#        150
#        11437
#        23099
#        35483
#        45533
#        54795
#        68970
#        78257
#        94127
#        113354
#        121558
#        127745
#        132676
#        141676
#
# Disc length: 2070 seconds
#
# Revision: 0
# Processed by: cddbd v1.5.2PL0 Copyright (c) Steve Scherf et al.
# Submitted via: ExactAudioCopy v1.3
#
DISCID=ae08140e
DTITLE=Whiskeydick - The Bastard Sons of Texas
DYEAR=2015
DGENRE=Heavy Metal Honky Tonk
TTITLE0=Whoops I was Drunk
TTITLE1=Silver Tongue Devil
TTITLE2=Bastard Sons of Texas
TTITLE3=The Hangin' Tree
TTITLE4=Restless, Heartbroke and Stoned
TTITLE5=Memories of You
TTITLE6=Fast Life
TTITLE7=Goddamn I need some Whiskey
TTITLE8=One More Day
TTITLE9=Edna and Earl
TTITLE10=Crazy Uncle Blue
TTITLE11=Truck Drivin' Blood
TTITLE12=Dead Folks Walkin'
TTITLE13=Twenty Nine
EXTD=
EXTT0=
EXTT1=
EXTT2=
EXTT3=
EXTT4=
EXTT5=
EXTT6=
EXTT7=
EXTT8=
EXTT9=
EXTT10=
EXTT11=
EXTT12=
EXTT13=
PLAYORDER=
